v  -49.37057 0.008201599 -15.08526
v  -36.87057 0.008201599 -15.08526
v  -36.87057 0.008201599 -49.41859
v  -49.37057 0.008201599 -49.41859
v  4.796101 0.008201599 -29.58526
v  5.796101 0.008201599 -29.58526
v  5.796101 0.008201599 -49.41859
v  -6.703899 0.008201599 -29.58526
v  4.796101 0.008201599 -29.58526
v  5.796101 0.008201599 -49.41859
v  1.462769 0.008201599 -15.08526
v  -10.2039 0.008201599 -17.58526
v  -16.2039 0.008201599 -17.91859
v  -23.2039 0.008201599 -29.58526
v  -6.703899 0.008201599 -29.58526
v  5.796101 0.008201599 -49.41859
v  -36.87057 0.008201599 -49.41859
v  -16.2039 0.008201599 -17.91859
v  -21.7039 0.008201599 -18.41859
v  -23.2039 0.008201599 -18.41859
v  -10.2039 0.008201599 -17.58526
v  -10.37057 0.008201599 -17.91859
v  -16.2039 0.008201599 -17.91859
v  1.462769 0.008201599 -15.08526
v  1.462769 0.008201599 -17.58526
v  -10.2039 0.008201599 -17.58526
v  -6.370567 0.008201599 -26.75193
v  -6.703899 0.008201599 -26.58526
v  -6.703899 0.008201599 -21.41859
v  1.462769 0.008201599 -21.41859
v  1.462769 0.008201599 -22.25193
v  1.796101 0.008201599 -22.58526
v  4.629433 0.008201599 -22.58526
v  4.462769 0.008201599 -29.25193
v  1.462769 0.008201599 -22.25193
v  1.796101 0.008201599 -22.58526
v  4.462769 0.008201599 -29.25193
v  -6.370567 0.008201599 -29.25193
v  -6.370567 0.008201599 -26.75193
v  4.796101 0.008201599 -29.58526
v  -6.703899 0.008201599 -29.58526
v  -6.370567 0.008201599 -29.25193
v  4.462769 0.008201599 -29.25193
v  -21.7039 0.008201599 -18.41859
v  -19.2039 0.008201599 -18.41859
v  -19.53723 0.008201599 -18.75193
v  -21.37057 0.008201599 -18.75193
v  -21.37057 0.008201599 -27.41859
v  -19.2039 0.008201599 -20.58526
v  -16.2039 0.008201599 -21.08526
v  -10.53723 0.008201599 -26.75193
v  -10.53723 0.008201599 -27.41859
v  -21.37057 0.008201599 -18.75193
v  -19.53723 0.008201599 -18.75193
v  -19.53723 0.008201599 -20.25193
v  -21.37057 0.008201599 -18.75193
v  -19.53723 0.008201599 -20.25193
v  -19.2039 0.008201599 -20.58526
v  -21.37057 0.008201599 -27.41859
v  -19.2039 0.008201599 -20.58526
v  -16.53723 0.008201599 -20.58526
v  -16.2039 0.008201599 -21.08526
v  -10.2039 0.008201599 -21.25193
v  -10.2039 0.008201599 -26.58526
v  -10.53723 0.008201599 -26.75193
v  -16.2039 0.008201599 -21.08526
v  -9.537233 2.008202 -20.25193
v  -7.370567 2.008202 -20.25193
v  -7.870567 2.008202 -20.75193
v  -9.037233 2.008202 -20.75193
v  -7.870567 2.008202 -20.75193
v  -7.870567 2.008202 -26.41859
v  -9.037233 2.008202 -26.41859
v  -9.037233 2.008202 -20.75193
v  -23.53723 0.008201599 -29.25193
v  -23.2039 0.008201599 -29.58526
v  -36.87057 0.008201599 -49.41859
v  -36.87057 0.008201599 -15.08526
v  -23.2039 0.008201599 -18.41859
v  -23.53723 0.008201599 -18.75193
v  -15.53723 2.008202 -19.91859
v  -15.87057 2.008202 -19.41859
v  -15.53723 2.008202 -19.08526
v  -9.870567 2.008202 -19.08526
v  -9.870567 2.008202 -19.91859
v  5.796101 1.841534 -15.08526
v  5.796101 1.841534 -15.41859
v  4.962769 2.008202 -15.41859
v  2.629433 2.008202 -15.08526
v  -23.53723 0.008201599 -29.25193
v  -36.87057 0.008201599 -49.41859
v  -36.87057 0.008201599 -15.08526
v  -23.53723 0.008201599 -18.75193
v  -9.703899 2.008202 -18.75193
v  2.129433 2.091534 -18.75193
v  2.129433 2.091534 -20.25193
v  -7.370567 2.008202 -20.25193
v  -9.870567 2.008202 -19.91859
v  -9.870567 2.008202 -19.08526
v  2.629433 2.008202 -15.08526
v  4.962769 2.008202 -15.41859
v  4.462769 2.008202 -15.91859
v  -7.370567 2.008202 -20.25193
v  -9.537233 2.008202 -20.25193
v  -9.870567 2.008202 -19.91859
v  2.629433 2.008202 -18.25193
v  2.629433 2.008202 -15.08526
v  4.462769 2.008202 -15.91859
v  4.462769 2.008202 -19.08526
v  2.629433 2.008202 -18.25193
v  4.462769 2.008202 -19.08526
v  4.962769 2.008202 -19.58526
v  2.129433 2.091534 -20.25193
v  2.129433 2.091534 -18.75193
v  -16.2039 0.008201599 -17.91859
v  -16.53723 0.008201599 -18.41859
v  -19.2039 0.008201599 -18.41859
v  -16.2039 0.008201599 -17.91859
v  -19.2039 0.008201599 -18.41859
v  -21.7039 0.008201599 -18.41859
v  -36.87057 0.008201599 -15.08526
v  1.462769 0.008201599 -15.08526
v  -16.2039 0.008201599 -17.91859
v  -23.2039 0.008201599 -18.41859
v  4.962769 2.008202 -19.58526
v  5.796101 2.008202 -19.58526
v  5.796101 2.008202 -21.41859
v  2.629433 2.008202 -21.41859
v  2.629433 2.008202 -20.75193
v  2.629433 2.008202 -20.75193
v  2.129433 2.091534 -20.25193
v  4.962769 2.008202 -19.58526
v  5.796101 0.008201599 -49.41859
v  5.796101 0.008201599 -29.58526
v  14.2961 0.008201599 -29.58526
v  5.796101 0.008201599 -49.41859
v  14.2961 0.008201599 -29.58526
v  16.7961 0.008201599 -29.58526
v  5.796101 0.008201599 -49.41859
v  16.7961 0.008201599 -29.58526
v  26.2961 0.008201599 -29.58526
v  38.46277 0.008201599 -16.41859
v  15.7961 0.008201599 -16.41859
v  15.96277 0.6748657 -15.75192
v  14.62943 0.008201599 -19.41859
v  16.7961 0.008201599 -19.41859
v  16.46277 0.008201599 -19.75193
v  16.46277 0.008201599 -29.25193
v  16.7961 0.008201599 -29.58526
v  14.2961 0.008201599 -29.58526
v  14.62943 0.008201599 -29.25193
v  16.46277 0.008201599 -29.25193
v  14.62943 0.008201599 -29.25193
v  14.62943 0.008201599 -25.75193
v  14.62943 0.008201599 -22.25193
v  14.62943 0.008201599 -19.41859
v  16.46277 0.008201599 -19.75193
v  14.2961 0.008201599 -25.41859
v  11.62943 0.008201599 -25.41859
v  11.62943 0.008201599 -22.58526
v  14.2961 0.008201599 -22.58526
v  16.46277 0.008201599 -19.75193
v  16.46277 0.008201599 -29.25193
v  14.62943 0.008201599 -25.75193
v  14.62943 0.008201599 -22.25193
v  14.62943 0.008201599 -25.75193
v  14.2961 0.008201599 -25.41859
v  14.2961 0.008201599 -22.58526
v  14.62943 0.008201599 -22.25193
v  26.2961 0.008201599 -25.41859
v  20.62943 0.008201599 -25.41859
v  20.62943 0.008201599 -23.58526
v  26.2961 0.008201599 -23.58526
v  26.62943 0.008201599 -29.25193
v  26.62943 0.008201599 -25.75193
v  38.46277 0.008201599 -20.58526
v  26.62943 0.008201599 -25.75193
v  26.2961 0.008201599 -25.41859
v  26.2961 0.008201599 -23.58526
v  26.62943 0.008201599 -23.25193
v  38.46277 0.008201599 -20.58526
v  48.46277 0.008201599 -15.08526
v  41.96277 0.008201599 -16.41859
v  38.46277 0.008201599 -16.41859
v  15.96277 0.6748657 -15.75192
v  15.62943 0.7582016 -15.41859
v  15.62943 0.7582016 -15.41859
v  5.796101 1.841534 -15.41859
v  5.796101 1.841534 -15.08526
v  48.46277 0.008201599 -15.08526
v  26.62943 0.008201599 -23.25193
v  26.62943 0.008201599 -20.58526
v  38.46277 0.008201599 -20.58526
v  8.129435 2.008202 -21.41859
v  5.796101 2.008202 -21.41859
v  5.796101 2.008202 -19.58526
v  13.46277 2.008202 -19.58526
v  13.46277 2.008202 -21.41859
v  10.96277 2.008202 -21.41859
v  10.96277 2.008202 -26.58526
v  13.46277 2.008202 -26.58526
v  13.46277 2.008202 -28.41859
v  5.796101 2.008202 -28.41859
v  5.796101 2.008202 -28.41859
v  5.796101 2.008202 -23.58526
v  8.129435 2.341534 -23.58526
v  10.46277 2.341534 -26.08526
v  5.796101 2.008202 -19.58526
v  13.46277 2.008202 -19.58526
v  10.96277 2.008202 -21.41859
v  8.129435 2.008202 -21.41859
v  10.46277 2.341534 -26.08526
v  10.96277 2.008202 -26.58526
v  5.796101 2.008202 -28.41859
v  8.629435 2.008202 -21.91859
v  8.129435 2.008202 -21.41859
v  10.96277 2.008202 -21.41859
v  10.46277 2.008202 -21.91859
v  8.129435 2.341534 -23.58526
v  8.629435 2.341534 -23.08526
v  10.46277 2.008202 -21.91859
v  10.46277 2.341534 -26.08526
v  8.629435 2.341534 -23.08526
v  8.629435 2.008202 -21.91859
v  10.46277 2.008202 -21.91859
v  25.46277 2.008202 -20.58526
v  25.46277 2.008202 -22.41859
v  19.96277 2.008202 -22.41859
v  17.62943 2.008202 -20.58526
v  25.46277 2.008202 -28.41859
v  17.62943 2.008202 -28.41859
v  19.96277 2.008202 -26.58526
v  25.46277 2.008202 -26.58526
v  17.62943 2.008202 -20.58526
v  19.96277 2.008202 -22.41859
v  19.46277 2.008202 -22.91859
v  17.62943 2.008202 -28.41859
v  17.62943 2.008202 -20.58526
v  19.46277 2.008202 -22.91859
v  19.46277 2.008202 -26.08526
v  17.62943 2.008202 -28.41859
v  19.46277 2.008202 -26.08526
v  19.96277 2.008202 -26.58526
v  38.12944 0.008201599 -20.25193
v  38.46277 0.008201599 -20.58526
v  26.62943 0.008201599 -20.58526
v  26.62943 0.008201599 -19.75193
v  26.2961 0.008201599 -19.41859
v  38.12944 0.008201599 -19.41859
v  38.12944 0.008201599 -20.25193
v  26.62943 0.008201599 -20.58526
v  26.62943 0.008201599 -19.75193
v  38.12944 0.008201599 -19.41859
v  26.2961 0.008201599 -29.58526
v  26.62943 0.008201599 -29.25193
v  38.46277 0.008201599 -20.58526
v  41.96277 0.008201599 -20.58526
v  48.46277 0.008201599 -49.41859
v  5.796101 0.008201599 -49.41859
v  26.2961 0.008201599 -29.58526
v  41.96277 0.008201599 -20.58526
v  39.2961 3.841534 -19.41859
v  39.2961 3.841534 -17.58526
v  41.12944 3.841534 -17.58526
v  41.12944 3.841534 -19.41859
v  16.7961 0.008201599 -19.41859
v  14.62943 0.008201599 -19.41859
v  14.2961 0.008201599 -18.41859
v  14.2961 0.008201599 -18.41859
v  5.796101 0.008201599 -18.41859
v  5.796101 0.008201599 -16.58526
v  15.7961 0.008201599 -16.41859
v  38.12944 0.008201599 -16.75192
v  38.12944 0.008201599 -19.41859
v  26.2961 0.008201599 -19.41859
v  16.7961 0.008201599 -19.41859
v  14.2961 0.008201599 -18.41859
v  15.7961 0.008201599 -16.41859
v  38.46277 0.008201599 -16.41859
v  38.12944 0.008201599 -16.75192
v  26.2961 0.008201599 -19.41859
v  42.2961 0.008201599 -16.75192
v  41.96277 0.008201599 -16.41859
v  48.46277 0.008201599 -15.08526
v  42.2961 0.008201599 -20.25193
v  42.2961 0.008201599 -16.75192
v  48.46277 0.008201599 -15.08526
v  41.96277 0.008201599 -20.58526
v  42.2961 0.008201599 -20.25193
v  48.46277 0.008201599 -15.08526
v  48.46277 0.008201599 -49.41859
v  48.46277 0.008201599 -15.08526
v  49.46277 0.008201599 -15.08526
v  49.46277 0.008201599 -49.41859
v  48.46277 0.008201599 -49.41859
v  -49.37057 0.008201599 27.58141
v  -36.87057 0.008201599 27.58141
v  -36.87057 0.008201599 -15.08526
v  -49.37057 0.008201599 -15.08526
v  3.796101 0.008201599 -8.58526
v  5.796101 0.008201599 -8.58526
v  5.796101 0.008201599 -9.418593
v  1.296101 0.008201599 -8.58526
v  3.796101 0.008201599 -8.58526
v  5.796101 0.008201599 -9.418593
v  -2.203899 0.008201599 -8.58526
v  1.296101 0.008201599 -8.58526
v  5.796101 0.008201599 -9.418593
v  -8.203899 0.008201599 -9.418593
v  -8.537233 0.008201599 -13.25193
v  -8.203899 0.008201599 -13.58526
v  -36.87057 0.008201599 -15.08526
v  -8.203899 0.008201599 -13.58526
v  1.462769 0.008201599 -13.58526
v  1.462769 0.008201599 -15.08526
v  -36.87057 0.008201599 -15.08526
v  5.796101 0.008201599 27.58141
v  -2.203899 0.008201599 8.248074
v  -2.537231 0.008201599 7.91474
v  -36.87057 0.008201599 27.58141
v  5.796101 0.008201599 27.58141
v  1.296101 0.008201599 8.248074
v  -2.203899 0.008201599 8.248074
v  -2.537231 0.008201599 7.91474
v  -2.537231 0.008201599 4.41474
v  -2.870567 0.008201599 1.248074
v  -8.537233 0.008201599 -9.751926
v  -36.87057 0.008201599 -15.08526
v  -36.87057 0.008201599 27.58141
v  5.796101 1.841534 -15.08526
v  2.629433 2.008202 -15.08526
v  2.629433 2.008202 -12.91859
v  5.796101 2.008202 -10.58526
v  5.796101 1.841534 -15.08526
v  2.629433 2.008202 -12.91859
v  2.129433 2.008202 -12.41859
v  2.129433 2.008202 -12.41859
v  -7.370567 2.008202 -12.41859
v  -7.370567 2.008202 -10.58526
v  5.796101 2.008202 -10.58526
v  -2.537231 0.008201599 -8.251926
v  -2.203899 0.008201599 -8.58526
v  -8.203899 0.008201599 -9.418593
v  -1.370567 2.008202 5.248074
v  -1.370567 2.008202 7.081408
v  0.4627686 2.008202 7.081408
v  0.4627686 2.008202 5.248074
v  0.9627686 0.008201599 1.581408
v  1.296101 0.008201599 4.081408
v  1.629433 0.008201599 4.41474
v  3.796101 0.008201599 1.581408
v  1.296101 0.008201599 -4.418593
v  3.796101 0.008201599 -4.418593
v  3.462769 0.008201599 -4.751926
v  1.629433 0.008201599 -4.751926
v  3.462769 0.008201599 -4.751926
v  3.462769 0.008201599 -8.251926
v  1.629433 0.008201599 -8.251926
v  1.629433 0.008201599 -4.751926
v  3.462769 0.008201599 -8.251926
v  3.796101 0.008201599 -8.58526
v  1.296101 0.008201599 -8.58526
v  1.629433 0.008201599 -8.251926
v  -1.370567 2.008202 -7.418593
v  -1.370567 2.008202 -5.58526
v  0.4627686 2.008202 -5.58526
v  0.4627686 2.008202 -7.418593
v  5.796101 2.008202 -5.58526
v  5.796101 2.008202 -7.418593
v  4.629433 2.008202 -7.418593
v  4.629433 2.008202 -5.58526
v  3.796101 0.008201599 -2.58526
v  5.796101 0.008201599 -2.58526
v  5.796101 0.008201599 -4.418593
v  3.796101 0.008201599 -4.418593
v  0.9627686 0.008201599 -2.58526
v  1.296101 0.008201599 -4.418593
v  -2.203899 0.008201599 -4.418593
v  -2.537231 0.008201599 -2.58526
v  3.796101 0.008201599 -2.58526
v  3.796101 0.008201599 -4.418593
v  1.296101 0.008201599 -4.418593
v  0.9627686 0.008201599 -2.58526
v  -2.870567 0.008201599 -2.251926
v  -8.203899 0.008201599 -9.418593
v  -8.537233 0.008201599 -9.751926
v  -2.870567 0.008201599 1.248074
v  -2.870567 0.008201599 -2.251926
v  -2.537231 0.008201599 -2.58526
v  -8.203899 0.008201599 -9.418593
v  -8.537233 0.008201599 -9.751926
v  -8.537233 0.008201599 -13.25193
v  -36.87057 0.008201599 -15.08526
v  -2.537231 0.008201599 -4.751926
v  -2.537231 0.008201599 -8.251926
v  -8.203899 0.008201599 -9.418593
v  0.9627686 0.008201599 1.581408
v  3.796101 0.008201599 1.581408
v  3.462769 0.008201599 1.248074
v  1.296101 0.008201599 1.248074
v  3.462769 0.008201599 1.248074
v  3.462769 0.008201599 -2.251926
v  1.296101 0.008201599 -2.251926
v  1.296101 0.008201599 1.248074
v  3.462769 0.008201599 -2.251926
v  3.796101 0.008201599 -2.58526
v  0.9627686 0.008201599 -2.58526
v  1.296101 0.008201599 -2.251926
v  -1.703899 2.008202 -1.418593
v  -1.703899 2.008202 0.4147396
v  0.1294327 2.008202 0.4147396
v  0.1294327 2.008202 -1.418593
v  5.796101 2.008202 0.4147396
v  5.796101 2.008202 -1.418593
v  4.629433 2.008202 -1.418593
v  4.629433 2.008202 0.4147396
v  -2.537231 0.008201599 4.41474
v  -2.203899 0.008201599 4.081408
v  -2.870567 0.008201599 1.248074
v  -2.203899 0.008201599 4.081408
v  -2.537231 0.008201599 1.581408
v  -2.870567 0.008201599 1.248074
v  -2.537231 0.008201599 -2.58526
v  -2.203899 0.008201599 -4.418593
v  -2.537231 0.008201599 -4.751926
v  -8.203899 0.008201599 -9.418593
v  -2.203899 0.008201599 4.081408
v  1.296101 0.008201599 4.081408
v  0.9627686 0.008201599 1.581408
v  -2.537231 0.008201599 1.581408
v  5.796101 0.008201599 1.581408
v  3.796101 0.008201599 1.581408
v  1.629433 0.008201599 4.41474
v  1.629433 0.008201599 7.91474
v  5.796101 0.008201599 27.58141
v  1.629433 0.008201599 7.91474
v  1.296101 0.008201599 8.248074
v  5.796101 0.008201599 27.58141
v  15.96277 0.6748657 -13.25193
v  19.2961 0.008201599 -8.58526
v  19.62943 0.008201599 -8.251926
v  48.46277 0.008201599 -15.08526
v  5.796101 1.841534 -15.08526
v  9.962768 1.424866 -13.58526
v  15.62943 0.7582016 -13.58526
v  5.796101 2.008202 -10.58526
v  9.462768 2.008202 -10.58526
v  9.462768 2.008202 -13.08526
v  5.796101 1.841534 -15.08526
v  19.2961 0.008201599 1.581408
v  15.7961 0.008201599 1.581408
v  5.796101 0.008201599 27.58141
v  15.7961 0.008201599 1.581408
v  13.2961 0.008201599 1.581408
v  5.796101 0.008201599 27.58141
v  5.796101 0.008201599 -9.418593
v  5.796101 0.008201599 -8.58526
v  7.296101 0.008201599 -8.58526
v  10.2961 0.008201599 -9.418593
v  5.796101 0.008201599 -9.418593
v  7.296101 0.008201599 -8.58526
v  9.796101 0.008201599 -8.58526
v  15.96277 0.6748657 -13.25193
v  15.62943 0.008201599 -12.41859
v  15.7961 0.008201599 -8.58526
v  19.2961 0.008201599 -8.58526
v  10.62943 0.008201599 -9.751926
v  10.2961 0.008201599 -9.418593
v  9.796101 0.008201599 -8.58526
v  13.2961 0.008201599 -8.58526
v  9.462768 2.008202 -13.08526
v  9.962768 1.424866 -13.58526
v  5.796101 1.841534 -15.08526
v  15.62943 0.008201599 -12.41859
v  10.62943 0.008201599 -12.41859
v  10.62943 0.008201599 -9.751926
v  13.2961 0.008201599 -8.58526
v  15.7961 0.008201599 -8.58526
v  13.2961 0.008201599 1.581408
v  9.796101 0.008201599 1.581408
v  5.796101 0.008201599 27.58141
v  7.296101 0.008201599 -4.418593
v  9.796101 0.008201599 -4.418593
v  9.462768 0.008201599 -4.751926
v  7.629434 0.008201599 -4.751926
v  9.462768 0.008201599 -4.751926
v  9.462768 0.008201599 -8.251926
v  7.629434 0.008201599 -8.251926
v  7.629434 0.008201599 -4.751926
v  9.462768 0.008201599 -8.251926
v  9.796101 0.008201599 -8.58526
v  7.296101 0.008201599 -8.58526
v  7.629434 0.008201599 -8.251926
v  13.2961 0.008201599 -4.418593
v  15.7961 0.008201599 -4.418593
v  15.46277 0.008201599 -4.751926
v  13.62943 0.008201599 -4.751926
v  15.46277 0.008201599 -4.751926
v  15.46277 0.008201599 -8.251926
v  13.62943 0.008201599 -8.251926
v  13.62943 0.008201599 -4.751926
v  15.46277 0.008201599 -8.251926
v  15.7961 0.008201599 -8.58526
v  13.2961 0.008201599 -8.58526
v  13.62943 0.008201599 -8.251926
v  48.46277 0.008201599 -15.08526
v  5.796101 1.841534 -15.08526
v  15.62943 0.7582016 -13.58526
v  9.796101 0.008201599 1.581408
v  7.296101 0.008201599 1.581408
v  5.796101 0.008201599 27.58141
v  48.46277 0.008201599 -15.08526
v  15.62943 0.7582016 -13.58526
v  15.96277 0.6748657 -13.25193
v  5.796101 2.008202 -5.58526
v  6.462767 2.008202 -5.58526
v  6.462767 2.008202 -7.418593
v  5.796101 2.008202 -7.418593
v  10.62943 2.008202 -7.418593
v  10.62943 2.008202 -5.58526
v  12.46277 2.008202 -5.58526
v  12.46277 2.008202 -7.418593
v  16.62943 2.008202 -7.418593
v  16.62943 2.008202 -5.58526
v  18.46277 2.008202 -5.58526
v  18.46277 2.008202 -7.418593
v  7.296101 0.008201599 -4.418593
v  5.796101 0.008201599 -4.418593
v  5.796101 0.008201599 -2.58526
v  7.296101 0.008201599 -2.58526
v  15.7961 0.008201599 -4.418593
v  13.2961 0.008201599 -4.418593
v  13.2961 0.008201599 -2.58526
v  15.7961 0.008201599 -2.58526
v  9.796101 0.008201599 -4.418593
v  7.296101 0.008201599 -4.418593
v  7.296101 0.008201599 -2.58526
v  9.796101 0.008201599 -2.58526
v  19.2961 0.008201599 -4.418593
v  15.7961 0.008201599 -4.418593
v  15.7961 0.008201599 -2.58526
v  19.2961 0.008201599 -2.58526
v  13.2961 0.008201599 -4.418593
v  9.796101 0.008201599 -4.418593
v  9.796101 0.008201599 -2.58526
v  13.2961 0.008201599 -2.58526
v  7.296101 0.008201599 1.581408
v  5.796101 0.008201599 1.581408
v  5.796101 0.008201599 27.58141
v  7.296101 0.008201599 1.581408
v  9.796101 0.008201599 1.581408
v  9.462768 0.008201599 1.248074
v  7.629434 0.008201599 1.248074
v  9.462768 0.008201599 1.248074
v  9.462768 0.008201599 -2.251926
v  7.629434 0.008201599 -2.251926
v  7.629434 0.008201599 1.248074
v  9.462768 0.008201599 -2.251926
v  9.796101 0.008201599 -2.58526
v  7.296101 0.008201599 -2.58526
v  7.629434 0.008201599 -2.251926
v  13.2961 0.008201599 1.581408
v  15.7961 0.008201599 1.581408
v  15.46277 0.008201599 1.248074
v  13.62943 0.008201599 1.248074
v  15.46277 0.008201599 1.248074
v  15.46277 0.008201599 -2.251926
v  13.62943 0.008201599 -2.251926
v  13.62943 0.008201599 1.248074
v  15.46277 0.008201599 -2.251926
v  15.7961 0.008201599 -2.58526
v  13.2961 0.008201599 -2.58526
v  13.62943 0.008201599 -2.251926
v  16.62943 2.008202 -1.418593
v  16.62943 2.008202 0.4147396
v  18.46277 2.008202 0.4147396
v  18.46277 2.008202 -1.418593
v  5.796101 2.008202 0.4147396
v  6.462767 2.008202 0.4147396
v  6.462767 2.008202 -1.418593
v  5.796101 2.008202 -1.418593
v  10.62943 2.008202 -1.418593
v  10.62943 2.008202 0.4147396
v  12.46277 2.008202 0.4147396
v  12.46277 2.008202 -1.418593
v  19.62943 0.008201599 -4.751926
v  19.2961 0.008201599 -4.418593
v  19.2961 0.008201599 -2.58526
v  19.62943 0.008201599 -2.251926
v  48.46277 0.008201599 -15.08526
v  48.46277 0.008201599 -15.08526
v  19.62943 0.008201599 -2.251926
v  19.62943 0.008201599 1.248074
v  19.62943 0.008201599 1.248074
v  19.2961 0.008201599 1.581408
v  5.796101 0.008201599 27.58141
v  48.46277 0.008201599 27.58141
v  48.46277 0.008201599 -15.08526
v  48.46277 0.008201599 -15.08526
v  19.62943 0.008201599 -8.251926
v  19.62943 0.008201599 -4.751926
v  48.46277 0.008201599 27.58141
v  49.46277 0.008201599 27.58141
v  49.46277 0.008201599 -15.08526
v  48.46277 0.008201599 -15.08526
v  -36.87057 0.008201599 49.41474
v  -36.87057 0.008201599 27.58141
v  -49.37057 0.008201599 27.58141
v  -49.37057 0.008201599 49.41474
v  -36.87057 0.008201599 49.41474
v  5.796101 0.008201599 49.41474
v  5.796101 0.008201599 27.58141
v  -36.87057 0.008201599 27.58141
v  5.796101 0.008201599 49.41474
v  48.46277 0.008201599 49.41474
v  48.46277 0.008201599 27.58141
v  5.796101 0.008201599 27.58141
v  48.46277 0.008201599 49.41474
v  49.46277 0.008201599 49.41474
v  49.46277 0.008201599 27.58141
v  48.46277 0.008201599 27.58141
g pPlane1
f 1 2 3
f 1 3 4
f 5 6 7
f 8 9 10
f 11 12 13
f 14 15 16
f 14 16 17
f 18 19 20
f 21 22 23
f 24 25 26
f 27 28 29
f 27 29 30
f 27 30 31
f 32 33 34
f 35 36 37
f 35 37 38
f 35 38 39
f 40 41 42
f 40 42 43
f 44 45 46
f 44 46 47
f 48 49 50
f 48 50 51
f 48 51 52
f 53 54 55
f 56 57 58
f 56 58 59
f 60 61 62
f 63 64 65
f 63 65 66
f 67 68 69
f 67 69 70
f 71 72 73
f 71 73 74
f 75 76 77
f 78 79 80
f 81 82 83
f 81 83 84
f 81 84 85
f 86 87 88
f 86 88 89
f 90 91 92
f 90 92 93
f 94 95 96
f 94 96 97
f 94 97 98
f 94 98 99
f 100 101 102
f 103 104 105
f 106 107 108
f 106 108 109
f 110 111 112
f 110 112 113
f 110 113 114
f 115 116 117
f 118 119 120
f 121 122 123
f 121 123 124
f 125 126 127
f 125 127 128
f 125 128 129
f 130 131 132
f 133 134 135
f 136 137 138
f 139 140 141
f 142 143 144
f 145 146 147
f 148 149 150
f 148 150 151
f 152 153 154
f 155 156 157
f 158 159 160
f 158 160 161
f 162 163 164
f 162 164 165
f 166 167 168
f 166 168 169
f 170 171 172
f 170 172 173
f 174 175 176
f 177 178 179
f 177 179 180
f 177 180 181
f 182 183 184
f 182 184 185
f 182 185 186
f 187 188 189
f 187 189 190
f 191 192 193
f 194 195 196
f 197 198 199
f 200 201 202
f 200 202 203
f 204 205 206
f 204 206 207
f 208 209 210
f 208 210 211
f 212 213 214
f 215 216 217
f 215 217 218
f 219 220 221
f 219 221 222
f 223 224 225
f 226 227 228
f 226 228 229
f 230 231 232
f 230 232 233
f 234 235 236
f 237 238 239
f 237 239 240
f 241 242 243
f 244 245 246
f 247 248 249
f 250 251 252
f 250 252 253
f 254 255 256
f 254 256 257
f 258 259 260
f 258 260 261
f 262 263 264
f 262 264 265
f 266 267 268
f 269 270 271
f 269 271 272
f 273 274 275
f 276 277 278
f 276 278 279
f 276 279 280
f 276 280 281
f 282 283 284
f 285 286 287
f 288 289 290
f 288 290 291
f 292 293 294
f 292 294 295
f 296 297 298
f 296 298 299
f 300 301 302
f 303 304 305
f 306 307 308
f 306 308 309
f 310 311 312
f 313 314 315
f 313 315 316
f 317 318 319
f 317 319 320
f 321 322 323
f 324 325 326
f 324 326 327
f 324 327 328
f 324 328 329
f 330 331 332
f 333 334 335
f 333 335 336
f 337 338 339
f 337 339 340
f 341 342 343
f 344 345 346
f 344 346 347
f 348 349 350
f 348 350 351
f 352 353 354
f 352 354 355
f 356 357 358
f 356 358 359
f 360 361 362
f 360 362 363
f 364 365 366
f 364 366 367
f 368 369 370
f 368 370 371
f 372 373 374
f 372 374 375
f 376 377 378
f 376 378 379
f 380 381 382
f 380 382 383
f 384 385 386
f 384 386 387
f 388 389 390
f 391 392 393
f 394 395 396
f 397 398 399
f 397 399 400
f 401 402 403
f 401 403 404
f 405 406 407
f 405 407 408
f 409 410 411
f 409 411 412
f 413 414 415
f 413 415 416
f 417 418 419
f 420 421 422
f 423 424 425
f 423 425 426
f 427 428 429
f 427 429 430
f 431 432 433
f 431 433 434
f 431 434 435
f 436 437 438
f 439 440 441
f 439 441 442
f 443 444 445
f 446 447 448
f 446 448 449
f 450 451 452
f 453 454 455
f 456 457 458
f 459 460 461
f 459 461 462
f 463 464 465
f 463 465 466
f 467 468 469
f 467 469 470
f 471 472 473
f 474 475 476
f 474 476 477
f 474 477 478
f 479 480 481
f 482 483 484
f 482 484 485
f 486 487 488
f 486 488 489
f 490 491 492
f 490 492 493
f 494 495 496
f 494 496 497
f 498 499 500
f 498 500 501
f 502 503 504
f 502 504 505
f 506 507 508
f 509 510 511
f 512 513 514
f 515 516 517
f 515 517 518
f 519 520 521
f 519 521 522
f 523 524 525
f 523 525 526
f 527 528 529
f 527 529 530
f 531 532 533
f 531 533 534
f 535 536 537
f 535 537 538
f 539 540 541
f 539 541 542
f 543 544 545
f 543 545 546
f 547 548 549
f 550 551 552
f 550 552 553
f 554 555 556
f 554 556 557
f 558 559 560
f 558 560 561
f 562 563 564
f 562 564 565
f 566 567 568
f 566 568 569
f 570 571 572
f 570 572 573
f 574 575 576
f 574 576 577
f 578 579 580
f 578 580 581
f 582 583 584
f 582 584 585
f 586 587 588
f 586 588 589
f 586 589 590
f 591 592 593
f 594 595 596
f 594 596 597
f 594 597 598
f 599 600 601
f 602 603 604
f 602 604 605
f 606 607 608
f 606 608 609
f 610 611 612
f 610 612 613
f 614 615 616
f 614 616 617
f 618 619 620
f 618 620 621
